<svg width="10" height="12" viewBox="0 0 10 12" fill="none" xmlns="http://www.w3.org/2000/svg">
<path d="M5 6.6C4.38542 6.6 3.86719 6.3975 3.44531 5.9925C3.02344 5.5875 2.8125 5.09 2.8125 4.5C2.8125 3.91 3.02344 3.4125 3.44531 3.0075C3.86719 2.6025 4.38542 2.4 5 2.4C5.61458 2.4 6.13281 2.6025 6.55469 3.0075C6.97656 3.4125 7.1875 3.91 7.1875 4.5C7.1875 5.09 6.97656 5.5875 6.55469 5.9925C6.13281 6.3975 5.61458 6.6 5 6.6ZM5 5.4C5.27083 5.4 5.49479 5.315 5.67188 5.145C5.84896 4.975 5.9375 4.76 5.9375 4.5C5.9375 4.24 5.84896 4.025 5.67188 3.855C5.49479 3.685 5.27083 3.6 5 3.6C4.72917 3.6 4.50521 3.685 4.32812 3.855C4.15104 4.025 4.0625 4.24 4.0625 4.5C4.0625 4.76 4.15104 4.975 4.32812 5.145C4.50521 5.315 4.72917 5.4 5 5.4ZM5 12C3.55208 11.65 2.35677 10.8525 1.41406 9.6075C0.471354 8.3625 0 6.98 0 5.46V1.8L5 0L10 1.8V5.46C10 6.98 9.52865 8.3625 8.58594 9.6075C7.64323 10.8525 6.44792 11.65 5 12ZM5 1.275L1.25 2.625V5.46C1.25 6 1.32812 6.525 1.48438 7.035C1.64062 7.545 1.85417 8.025 2.125 8.475C2.5625 8.265 3.02083 8.1 3.5 7.98C3.97917 7.86 4.47917 7.8 5 7.8C5.52083 7.8 6.02083 7.86 6.5 7.98C6.97917 8.1 7.4375 8.265 7.875 8.475C8.14583 8.025 8.35938 7.545 8.51562 7.035C8.67188 6.525 8.75 6 8.75 5.46V2.625L5 1.275ZM5 9C4.625 9 4.26042 9.04 3.90625 9.12C3.55208 9.2 3.21354 9.31 2.89062 9.45C3.19271 9.75 3.52083 10.01 3.875 10.23C4.22917 10.45 4.60417 10.62 5 10.74C5.39583 10.62 5.77083 10.45 6.125 10.23C6.47917 10.01 6.80729 9.75 7.10938 9.45C6.78646 9.31 6.44792 9.2 6.09375 9.12C5.73958 9.04 5.375 9 5 9Z" />
</svg>
