<svg width="12" height="14" viewBox="0 0 12 14" fill="none" xmlns="http://www.w3.org/2000/svg">
<path d="M1.33333 14C0.966667 14 0.652778 13.8629 0.391667 13.5888C0.130556 13.3146 0 12.985 0 12.6V2.8C0 2.415 0.130556 2.08542 0.391667 1.81125C0.652778 1.53708 0.966667 1.4 1.33333 1.4H2V0H3.33333V1.4H8.66667V0H10V1.4H10.6667C11.0333 1.4 11.3472 1.53708 11.6083 1.81125C11.8694 2.08542 12 2.415 12 2.8V12.6C12 12.985 11.8694 13.3146 11.6083 13.5888C11.3472 13.8629 11.0333 14 10.6667 14H1.33333ZM1.33333 12.6H10.6667V5.6H1.33333V12.6ZM1.33333 4.2H10.6667V2.8H1.33333V4.2ZM6 8.4C5.81111 8.4 5.65278 8.33292 5.525 8.19875C5.39722 8.06458 5.33333 7.89833 5.33333 7.7C5.33333 7.50167 5.39722 7.33542 5.525 7.20125C5.65278 7.06708 5.81111 7 6 7C6.18889 7 6.34722 7.06708 6.475 7.20125C6.60278 7.33542 6.66667 7.50167 6.66667 7.7C6.66667 7.89833 6.60278 8.06458 6.475 8.19875C6.34722 8.33292 6.18889 8.4 6 8.4ZM3.33333 8.4C3.14444 8.4 2.98611 8.33292 2.85833 8.19875C2.73056 8.06458 2.66667 7.89833 2.66667 7.7C2.66667 7.50167 2.73056 7.33542 2.85833 7.20125C2.98611 7.06708 3.14444 7 3.33333 7C3.52222 7 3.68056 7.06708 3.80833 7.20125C3.93611 7.33542 4 7.50167 4 7.7C4 7.89833 3.93611 8.06458 3.80833 8.19875C3.68056 8.33292 3.52222 8.4 3.33333 8.4ZM8.66667 8.4C8.47778 8.4 8.31944 8.33292 8.19167 8.19875C8.06389 8.06458 8 7.89833 8 7.7C8 7.50167 8.06389 7.33542 8.19167 7.20125C8.31944 7.06708 8.47778 7 8.66667 7C8.85556 7 9.01389 7.06708 9.14167 7.20125C9.26944 7.33542 9.33333 7.50167 9.33333 7.7C9.33333 7.89833 9.26944 8.06458 9.14167 8.19875C9.01389 8.33292 8.85556 8.4 8.66667 8.4ZM6 11.2C5.81111 11.2 5.65278 11.1329 5.525 10.9988C5.39722 10.8646 5.33333 10.6983 5.33333 10.5C5.33333 10.3017 5.39722 10.1354 5.525 10.0013C5.65278 9.86708 5.81111 9.8 6 9.8C6.18889 9.8 6.34722 9.86708 6.475 10.0013C6.60278 10.1354 6.66667 10.3017 6.66667 10.5C6.66667 10.6983 6.60278 10.8646 6.475 10.9988C6.34722 11.1329 6.18889 11.2 6 11.2ZM3.33333 11.2C3.14444 11.2 2.98611 11.1329 2.85833 10.9988C2.73056 10.8646 2.66667 10.6983 2.66667 10.5C2.66667 10.3017 2.73056 10.1354 2.85833 10.0013C2.98611 9.86708 3.14444 9.8 3.33333 9.8C3.52222 9.8 3.68056 9.86708 3.80833 10.0013C3.93611 10.1354 4 10.3017 4 10.5C4 10.6983 3.93611 10.8646 3.80833 10.9988C3.68056 11.1329 3.52222 11.2 3.33333 11.2ZM8.66667 11.2C8.47778 11.2 8.31944 11.1329 8.19167 10.9988C8.06389 10.8646 8 10.6983 8 10.5C8 10.3017 8.06389 10.1354 8.19167 10.0013C8.31944 9.86708 8.47778 9.8 8.66667 9.8C8.85556 9.8 9.01389 9.86708 9.14167 10.0013C9.26944 10.1354 9.33333 10.3017 9.33333 10.5C9.33333 10.6983 9.26944 10.8646 9.14167 10.9988C9.01389 11.1329 8.85556 11.2 8.66667 11.2Z" fill="#AEAEAE"/>
</svg>
