<svg width="4" height="10" viewBox="0 0 4 10" fill="none" xmlns="http://www.w3.org/2000/svg">
<path d="M2 9.5C1.69062 9.5 1.42578 9.38984 1.20547 9.16953C0.985156 8.94922 0.875 8.68437 0.875 8.375C0.875 8.06562 0.985156 7.80078 1.20547 7.58047C1.42578 7.36016 1.69062 7.25 2 7.25C2.30937 7.25 2.57422 7.36016 2.79453 7.58047C3.01484 7.80078 3.125 8.06562 3.125 8.375C3.125 8.68437 3.01484 8.94922 2.79453 9.16953C2.57422 9.38984 2.30937 9.5 2 9.5ZM2 6.125C1.69062 6.125 1.42578 6.01484 1.20547 5.79453C0.985156 5.57422 0.875 5.30937 0.875 5C0.875 4.69062 0.985156 4.42578 1.20547 4.20547C1.42578 3.98516 1.69062 3.875 2 3.875C2.30937 3.875 2.57422 3.98516 2.79453 4.20547C3.01484 4.42578 3.125 4.69062 3.125 5C3.125 5.30937 3.01484 5.57422 2.79453 5.79453C2.57422 6.01484 2.30937 6.125 2 6.125ZM2 2.75C1.69062 2.75 1.42578 2.63984 1.20547 2.41953C0.985156 2.19922 0.875 1.93437 0.875 1.625C0.875 1.31562 0.985156 1.05078 1.20547 0.830469C1.42578 0.610156 1.69062 0.5 2 0.5C2.30937 0.5 2.57422 0.610156 2.79453 0.830469C3.01484 1.05078 3.125 1.31562 3.125 1.625C3.125 1.93437 3.01484 2.19922 2.79453 2.41953C2.57422 2.63984 2.30937 2.75 2 2.75Z" fill="white"/>
</svg>
