<svg width="12" height="12" viewBox="0 0 12 12" fill="none" xmlns="http://www.w3.org/2000/svg">
<path d="M4 12C2.88889 12 1.94444 11.6111 1.16667 10.8333C0.388889 10.0556 0 9.11111 0 8V4C0 2.88889 0.388889 1.94444 1.16667 1.16667C1.94444 0.388889 2.88889 0 4 0H8C9.11111 0 10.0556 0.388889 10.8333 1.16667C11.6111 1.94444 12 2.88889 12 4V8C12 9.11111 11.6111 10.0556 10.8333 10.8333C10.0556 11.6111 9.11111 12 8 12H4ZM5.33333 8.66667L9.33333 4.66667L8.4 3.73333L5.33333 6.8L3.86667 5.33333L2.93333 6.26667L5.33333 8.66667ZM4 10.6667H8C8.73333 10.6667 9.36111 10.4056 9.88333 9.88333C10.4056 9.36111 10.6667 8.73333 10.6667 8V4C10.6667 3.26667 10.4056 2.63889 9.88333 2.11667C9.36111 1.59444 8.73333 1.33333 8 1.33333H4C3.26667 1.33333 2.63889 1.59444 2.11667 2.11667C1.59444 2.63889 1.33333 3.26667 1.33333 4V8C1.33333 8.73333 1.59444 9.36111 2.11667 9.88333C2.63889 10.4056 3.26667 10.6667 4 10.6667Z" fill="white" fill-opacity="0.25"/>
</svg>
