<svg width="16" height="16" viewBox="0 0 16 16" fill="none" xmlns="http://www.w3.org/2000/svg">
<path d="M10.1688 8.64484L8.99032 9.82378L12.3215 13.1562L13.5 11.9773L10.1688 8.64484Z" fill="white"/>
<path d="M11.0555 6.94945C12.1277 6.94945 12.9999 6.0769 12.9999 5.00428C12.9999 4.68194 12.911 4.38182 12.7721 4.11506L11.2721 5.61562L10.4444 4.78753L11.9443 3.28697C11.6777 3.14803 11.3777 3.05911 11.0555 3.05911C9.98326 3.05911 9.11104 3.93166 9.11104 5.00428C9.11104 5.23214 9.15549 5.44889 9.22771 5.64896L8.19994 6.67713L7.21106 5.68787L7.6055 5.29328L6.82218 4.50965L7.99994 3.33143C7.34995 2.68119 6.29441 2.68119 5.64441 3.33143L3.67777 5.29883L4.46109 6.08246H2.89444L2.5 6.47705L4.46665 8.44445L4.86109 8.04986V6.47705L5.64441 7.26068L6.03885 6.86608L7.02773 7.85534L2.91111 11.9735L4.08887 13.1518L10.411 6.83274C10.611 6.90499 10.8277 6.94945 11.0555 6.94945Z" fill="white"/>
</svg>
