<svg width="12" height="12" viewBox="0 0 12 12" fill="none" xmlns="http://www.w3.org/2000/svg">
<path d="M5.41353 12C3.86967 11.8492 2.58145 11.201 1.54887 10.0553C0.516291 8.90955 0 7.55779 0 6C0 4.44221 0.516291 3.09045 1.54887 1.94472C2.58145 0.798995 3.86967 0.150754 5.41353 0V1.80905C4.37093 1.94975 3.50877 2.41709 2.82707 3.21106C2.14536 4.00503 1.80451 4.93467 1.80451 6C1.80451 7.06533 2.14536 7.99498 2.82707 8.78894C3.50877 9.58291 4.37093 10.0503 5.41353 10.191V12ZM6.61654 12V10.191C7.5589 10.0704 8.35589 9.67839 9.00752 9.01508C9.65915 8.35176 10.0551 7.54774 10.1955 6.60302H12C11.8596 8.0402 11.2857 9.26382 10.2782 10.2739C9.27068 11.2839 8.05013 11.8593 6.61654 12ZM10.1955 5.39699C10.0551 4.45226 9.65915 3.64824 9.00752 2.98492C8.35589 2.32161 7.5589 1.92965 6.61654 1.80905V0C8.05013 0.140704 9.27068 0.71608 10.2782 1.72613C11.2857 2.73618 11.8596 3.9598 12 5.39699H10.1955Z" fill="white" fill-opacity="0.25"/>
</svg>
