<svg width="12" height="14" viewBox="0 0 12 14" fill="none" xmlns="http://www.w3.org/2000/svg">
<path d="M1.49827 12.4444H10.5017L9.43257 4.66667H2.56743L1.49827 12.4444ZM6 3.11111C6.21258 3.11111 6.39077 3.03657 6.53458 2.8875C6.67839 2.73843 6.75029 2.5537 6.75029 2.33333C6.75029 2.11296 6.67839 1.92824 6.53458 1.77917C6.39077 1.63009 6.21258 1.55556 6 1.55556C5.78742 1.55556 5.60922 1.63009 5.46542 1.77917C5.32161 1.92824 5.24971 2.11296 5.24971 2.33333C5.24971 2.5537 5.32161 2.73843 5.46542 2.8875C5.60922 3.03657 5.78742 3.11111 6 3.11111ZM8.11956 3.11111H9.43257C9.80771 3.11111 10.1328 3.24074 10.4079 3.5C10.683 3.75926 10.8519 4.07685 10.9144 4.45278L11.9835 12.2306C12.0461 12.6972 11.9304 13.1088 11.6365 13.4653C11.3427 13.8218 10.9644 14 10.5017 14H1.49827C1.03559 14 0.657325 13.8218 0.363462 13.4653C0.0695991 13.1088 -0.0460703 12.6972 0.0164537 12.2306L1.08561 4.45278C1.14814 4.07685 1.31695 3.75926 1.59206 3.5C1.86716 3.24074 2.19229 3.11111 2.56743 3.11111H3.88044C3.84292 2.98148 3.81166 2.85509 3.78665 2.73194C3.76164 2.6088 3.74914 2.47593 3.74914 2.33333C3.74914 1.68519 3.96797 1.13426 4.40564 0.680556C4.84331 0.226852 5.37476 0 6 0C6.62524 0 7.15669 0.226852 7.59436 0.680556C8.03203 1.13426 8.25086 1.68519 8.25086 2.33333C8.25086 2.47593 8.23836 2.6088 8.21335 2.73194C8.18834 2.85509 8.15708 2.98148 8.11956 3.11111Z" fill="white" fill-opacity="0.25"/>
</svg>
