<svg width="301" height="77" viewBox="0 0 301 77" fill="none" xmlns="http://www.w3.org/2000/svg">
<rect x="1" y="1" width="299" height="75" rx="15" fill="#434650"/>
<path d="M23.5367 25.2H51.4767C54.058 25.2 56.1407 25.948 57.7247 27.444C59.3087 28.9107 60.1007 30.9053 60.1007 33.428C60.1007 34.924 59.734 36.3173 59.0007 37.608C58.2674 38.8987 57.2554 39.9253 55.9647 40.688C54.674 41.4507 53.2074 41.832 51.5647 41.832L38.1447 41.876V56H23.5367V25.2ZM39.6847 39.324C40.7407 39.324 41.7087 39.0747 42.5887 38.576C43.498 38.048 44.202 37.344 44.7007 36.464C45.2287 35.5547 45.4927 34.5867 45.4927 33.56C45.4927 32.504 45.2287 31.536 44.7007 30.656C44.202 29.7467 43.498 29.028 42.5887 28.5C41.7087 27.972 40.7407 27.708 39.6847 27.708H38.1447V39.324H39.6847Z" fill="#9DBF16"/>
<path d="M75.7595 31.976C76.1995 31.976 76.6689 32.0053 77.1675 32.064C77.6955 32.0933 78.1502 32.152 78.5315 32.24L78.0475 35.804C77.6662 35.716 77.2409 35.6427 76.7715 35.584C76.3315 35.5253 75.9062 35.496 75.4955 35.496C74.5862 35.496 73.7209 35.6867 72.8995 36.068C72.0782 36.4493 71.3449 36.992 70.6995 37.696C70.0542 38.3707 69.5409 39.192 69.1595 40.16C68.8075 41.128 68.6315 42.2133 68.6315 43.416V56H64.7595V32.416H67.9275L68.3675 36.728H68.5435C69.0422 35.848 69.6435 35.056 70.3475 34.352C71.0515 33.6187 71.8582 33.0467 72.7675 32.636C73.6769 32.196 74.6742 31.976 75.7595 31.976Z" fill="#F28F8F"/>
<path d="M86.6753 56.528C84.6513 56.528 83.0673 55.824 81.9233 54.416C80.7793 52.9787 80.2073 50.984 80.2073 48.432C80.2073 45.176 81.0726 42.3747 82.8033 40.028C84.5633 37.6813 86.9833 36.508 90.0633 36.508L91.6473 36.596C92.146 36.332 92.7033 36.2 93.3193 36.2C95.6366 36.2 96.7953 38.3853 96.7953 42.756C97.998 42.6973 99.2153 42.536 100.447 42.272L101.151 42.096L101.415 43.812C100.447 44.2227 99.142 44.5893 97.4993 44.912L96.6193 45.088C96.062 48.168 94.9326 50.852 93.2313 53.14C91.53 55.3987 89.3446 56.528 86.6753 56.528ZM89.0513 52.744C90.2833 52.744 91.3833 51.952 92.3513 50.368C93.3486 48.784 94.038 47.112 94.4193 45.352C91.2806 45.352 89.7113 44.1787 89.7113 41.832C89.7113 40.8933 89.902 40.0133 90.2833 39.192L90.5033 38.752C90.386 38.6933 90.2393 38.664 90.0633 38.664C89.8873 38.664 89.7553 38.6933 89.6673 38.752C88.934 39.2213 88.2446 40.3213 87.5993 42.052C86.954 43.7827 86.6313 45.7627 86.6313 47.992C86.6313 51.16 87.438 52.744 89.0513 52.744Z" fill="#8D8CC9"/>
<path d="M103.279 43.4531C103.279 45.3724 103.437 46.9766 103.752 48.2656C104.081 49.5404 104.533 50.5645 105.105 51.3379C105.678 52.1113 106.352 52.6628 107.125 52.9922C107.913 53.3216 108.765 53.4863 109.682 53.4863C110.298 53.4863 110.935 53.4147 111.594 53.2715C112.253 53.1283 112.904 52.9206 113.549 52.6484C114.193 52.362 114.824 52.0111 115.439 51.5957C116.055 51.166 116.621 50.6647 117.137 50.0918V36.5996C116.535 36.1556 115.934 35.7402 115.332 35.3535C114.73 34.9525 114.115 34.6087 113.484 34.3223C112.868 34.0215 112.231 33.7923 111.572 33.6348C110.928 33.4629 110.255 33.377 109.553 33.377C108.335 33.377 107.326 33.6419 106.523 34.1719C105.721 34.6875 105.077 35.4036 104.59 36.3203C104.117 37.237 103.781 38.3112 103.58 39.543C103.38 40.7604 103.279 42.0638 103.279 43.4531ZM108.994 30.4336C110.627 30.4336 112.131 30.7129 113.506 31.2715C114.881 31.8158 116.091 32.6966 117.137 33.9141V22.0762L121.219 21.3242V56H118.189L117.588 52.1543C117.115 52.7559 116.578 53.3216 115.977 53.8516C115.389 54.3672 114.752 54.8184 114.064 55.2051C113.377 55.5918 112.654 55.8926 111.895 56.1074C111.15 56.3223 110.383 56.4297 109.596 56.4297C107.934 56.4297 106.466 56.1217 105.191 55.5059C103.931 54.89 102.864 54.002 101.99 52.8418C101.131 51.6816 100.479 50.2708 100.035 48.6094C99.5911 46.9336 99.3691 45.043 99.3691 42.9375C99.3691 41.2617 99.5911 39.6719 100.035 38.168C100.493 36.6497 101.138 35.3177 101.969 34.1719C102.814 33.026 103.831 32.1165 105.02 31.4434C106.208 30.7702 107.533 30.4336 108.994 30.4336Z" fill="#B0DDAF"/>
<path d="M130.958 56.22C129.579 56.22 128.464 55.6627 127.614 54.548C126.792 53.404 126.382 51.8347 126.382 49.84C126.382 47.64 126.528 45.6307 126.822 43.812C127.115 41.964 127.599 40.0133 128.274 37.96C128.567 37.08 128.978 36.4493 129.506 36.068C130.034 35.6867 130.87 35.496 132.014 35.496C132.659 35.496 133.099 35.5987 133.334 35.804C133.598 36.0093 133.73 36.3173 133.73 36.728C133.73 36.9627 133.568 37.7547 133.246 39.104C132.952 40.1893 132.718 41.172 132.542 42.052C131.955 45.132 131.662 47.1853 131.662 48.212C131.662 48.828 131.735 49.268 131.882 49.532C132.028 49.7667 132.263 49.884 132.586 49.884C133.026 49.884 133.583 49.444 134.258 48.564C134.932 47.6547 135.636 46.3053 136.37 44.516C137.132 42.6973 137.851 40.512 138.526 37.96C138.76 37.08 139.112 36.4493 139.582 36.068C140.08 35.6867 140.814 35.496 141.782 35.496C142.427 35.496 142.882 35.672 143.146 36.024C143.439 36.3467 143.586 36.8453 143.586 37.52C143.586 38.2533 143.527 39.0747 143.41 39.984C143.292 40.864 143.16 41.7733 143.014 42.712C142.72 44.5893 142.486 46.3053 142.31 47.86C142.134 49.3853 142.046 51.1307 142.046 53.096C142.046 54.2107 141.811 55.0173 141.342 55.516C140.902 55.9853 140.168 56.22 139.142 56.22C138.056 56.22 137.294 55.9413 136.854 55.384C136.443 54.7973 136.238 53.6827 136.238 52.04C136.238 51.7173 136.267 50.9987 136.326 49.884C135.827 51.9373 135.079 53.5067 134.082 54.592C133.114 55.6773 132.072 56.22 130.958 56.22Z" fill="#BB81CA"/>
<path d="M146.098 45.3438C146.098 43.8971 146.398 42.5078 147 41.1758C147.616 39.8438 148.54 38.6693 149.771 37.6523C151.003 36.6354 152.557 35.8262 154.434 35.2246C156.324 34.6087 158.544 34.3008 161.094 34.3008C162.927 34.3008 164.495 34.4798 165.799 34.8379C167.102 35.1816 168.169 35.64 169 36.2129C169.831 36.7858 170.439 37.4375 170.826 38.168C171.213 38.8984 171.406 39.6432 171.406 40.4023C171.406 40.9896 171.27 41.5482 170.998 42.0781C170.726 42.6081 170.361 43.0807 169.902 43.4961C169.444 43.8971 168.907 44.2194 168.291 44.4629C167.675 44.7064 167.023 44.8281 166.336 44.8281L160.879 37.373C160.478 37.7311 160.105 38.1536 159.762 38.6406C159.432 39.1276 159.139 39.6862 158.881 40.3164C158.637 40.9323 158.444 41.627 158.301 42.4004C158.172 43.1595 158.107 43.9974 158.107 44.9141C158.107 46.1888 158.265 47.306 158.58 48.2656C158.895 49.2253 159.325 50.0273 159.869 50.6719C160.413 51.3021 161.058 51.7819 161.803 52.1113C162.562 52.4264 163.385 52.584 164.273 52.584C164.703 52.584 165.133 52.5553 165.562 52.498C166.007 52.4264 166.422 52.3405 166.809 52.2402C167.21 52.1257 167.575 51.9967 167.904 51.8535C168.234 51.7103 168.513 51.5599 168.742 51.4023L170.461 54.4102C169.931 54.6823 169.351 54.9401 168.721 55.1836C168.105 55.4271 167.417 55.6419 166.658 55.8281C165.913 56 165.09 56.1361 164.188 56.2363C163.285 56.3509 162.297 56.4082 161.223 56.4082C158.645 56.4082 156.403 56.1074 154.498 55.5059C152.607 54.89 151.039 54.0736 149.793 53.0566C148.547 52.0397 147.616 50.8652 147 49.5332C146.398 48.2012 146.098 46.8047 146.098 45.3438Z" fill="#74C4AC"/>
<path d="M193.16 30.48V31.8H183.92V56H182.6V31.8H173.36V30.48H193.16Z" fill="#DBCE5E"/>
<path d="M201.575 30.788C200.049 29.9667 198.671 28.8813 197.439 27.532C197.468 27.0627 197.659 26.5347 198.011 25.948C198.392 25.332 198.832 24.7747 199.331 24.276C199.859 23.748 200.357 23.4253 200.827 23.308C201.296 23.308 201.824 23.4987 202.411 23.88C202.997 24.232 203.54 24.672 204.039 25.2C204.537 25.6987 204.831 26.1827 204.919 26.652C204.889 27.1507 204.684 27.708 204.303 28.324C203.921 28.9107 203.481 29.4387 202.983 29.908C202.484 30.348 202.015 30.6413 201.575 30.788ZM206.415 50.104C206.62 50.456 206.869 50.9987 207.163 51.732C207.456 52.436 207.632 53.1253 207.691 53.8L201.751 56.704C199.521 55.6773 197.996 54.3573 197.175 52.744L198.099 38.928L194.887 39.896C194.681 39.544 194.432 39.016 194.139 38.312C193.845 37.5787 193.669 36.8747 193.611 36.2L199.551 33.296C199.844 33.3253 200.269 33.4867 200.827 33.78C201.384 34.0733 201.927 34.396 202.455 34.748C203.012 35.1 203.437 35.3933 203.731 35.628L202.499 45.308V51.292L206.415 50.104Z" fill="#ED53C2"/>
<path d="M227.79 57.54C214.385 57.54 207.682 52.084 207.682 41.172C207.682 35.2173 209.369 30.8467 212.742 28.06C216.145 25.2733 221.234 23.88 228.01 23.88C235.197 23.88 240.418 25.2587 243.674 28.016C246.96 30.744 248.602 34.7773 248.602 40.116C248.602 46.1293 246.872 50.544 243.41 53.36C239.949 56.1467 234.742 57.54 227.79 57.54ZM226.954 43.108H229.33V38.312H226.954V43.108Z" fill="#F0A22C"/>
<path d="M262.779 42.052V56H250.327V29.996H261.371L261.811 33.208C261.928 32.8853 262.192 32.4893 262.603 32.02C263.013 31.5507 263.453 31.1547 263.923 30.832C265.213 29.9813 266.929 29.556 269.071 29.556C271.945 29.556 274.101 30.348 275.539 31.932C277.005 33.516 277.739 35.8187 277.739 38.84V56H265.287V42.052C265.287 41.7 265.155 41.4067 264.891 41.172C264.656 40.908 264.363 40.776 264.011 40.776C263.659 40.776 263.365 40.908 263.131 41.172C262.896 41.4067 262.779 41.7 262.779 42.052Z" fill="#40A8BF"/>
<rect x="1" y="1" width="299" height="75" rx="15" stroke="#61636C" stroke-width="2"/>
</svg>
