<svg width="215" height="86" viewBox="0 0 215 86" fill="none" xmlns="http://www.w3.org/2000/svg">
<mask id="path-1-outside-1_2_66" maskUnits="userSpaceOnUse" x="0" y="0" width="215" height="86" fill="black">
<rect fill="white" width="215" height="86"/>
<path d="M39.0641 61.2216C36.406 62.3815 33.693 63.21 30.9252 63.7071C28.1848 64.2319 25.5814 64.4942 23.115 64.4942C20.6761 64.4942 18.47 64.3561 16.497 64.08C14.5513 63.8314 12.6056 63.3895 10.6599 62.7543C8.74163 62.0915 7.08369 61.2492 5.68608 60.2274C2.56203 57.9904 1 54.8282 1 50.7409C1 48.3105 1.56178 46.0459 2.68535 43.947C3.80891 41.8205 5.27502 40.0668 7.08369 38.6859C10.9202 35.7033 15.1131 34.212 19.6621 34.212C25.1155 34.212 29.1713 35.8276 31.8295 39.0588C33.1449 40.6882 33.8026 42.6628 33.8026 44.9827C33.8026 47.3025 32.7064 49.3186 30.5141 51.0308C28.3492 52.7155 26.0609 53.5578 23.6494 53.5578C23.0739 53.5578 22.7862 53.2678 22.7862 52.6879C22.7862 52.0803 23.0602 51.6522 23.6083 51.4037C24.1564 51.1275 24.8141 50.8789 25.5814 50.658C26.3487 50.4094 27.116 50.1195 27.8833 49.7881C29.7742 48.9319 30.7196 47.5511 30.7196 45.6455C30.7196 43.7123 29.8427 42.2624 28.0888 41.2958C26.3624 40.3015 23.348 39.8044 19.0455 39.8044C14.7431 39.8044 11.4135 40.9091 9.05677 43.1185C6.70003 45.3003 5.52166 47.9101 5.52166 50.948C5.52166 54.9525 7.28922 57.797 10.8243 59.4817C13.9758 61.0006 17.7438 61.7601 22.1285 61.7601C29.6646 61.7601 35.762 59.5922 40.4206 55.2563C43.7091 52.2184 45.3534 48.3934 45.3534 43.7813C45.3534 41.0196 44.3805 38.3407 42.4348 35.7447C41.5853 34.5848 40.6399 33.4387 39.5985 32.3064C38.5572 31.1741 37.5158 30.0418 36.4745 28.9095C35.4331 27.7771 34.4877 26.6448 33.6382 25.5125C31.6925 23.027 30.7196 20.7071 30.7196 18.553C30.7196 16.3989 31.0622 14.5485 31.7473 13.0019C32.4598 11.4278 33.3915 10.0745 34.5425 8.94221C35.7209 7.78229 37.0637 6.78807 38.5709 5.95955C41.6127 4.24729 44.8327 3.39115 48.2308 3.39115C51.1904 3.39115 53.9445 4.1092 56.4931 5.54529C59.2883 7.09186 60.6859 9.45313 60.6859 12.6291C60.6859 13.8719 60.2474 14.9628 59.3705 15.9017C58.4936 16.8407 57.507 17.3102 56.4109 17.3102C55.3147 17.3102 54.4104 16.9926 53.6979 16.3574C53.0128 15.7222 52.6702 15.018 52.6702 14.2447C52.6702 13.4438 52.9991 12.6015 53.6568 11.7177C54.3419 10.8064 54.6844 10.0607 54.6844 9.48075C54.6844 8.87317 54.4378 8.32082 53.9445 7.82371C53.4512 7.3266 52.8209 6.95377 52.0536 6.70522C50.519 6.23572 49.1214 6.00098 47.8608 6.00098C44.956 6.00098 42.4622 6.87092 40.3795 8.6108C38.2968 10.3507 37.2555 12.7672 37.2555 15.8603C37.2555 17.545 38.2968 19.5196 40.3795 21.7842C41.3113 22.7784 42.3252 23.8417 43.4214 24.974C44.5449 26.0787 45.6685 27.2662 46.7921 28.5366C47.9156 29.807 48.9433 31.1188 49.875 32.4721C51.9577 35.4547 52.9991 38.5479 52.9991 41.7514C52.9991 44.955 52.3688 47.8549 51.1082 50.4509C49.8476 53.0469 48.1897 55.201 46.1344 56.9133C44.1065 58.5979 41.7497 60.034 39.0641 61.2216Z"/>
<path d="M50.658 81.7424C52.0197 77.4449 53.7602 74.2045 55.8793 72.021C58.1684 69.7834 61.0814 67.2996 64.6184 64.5697C65.9286 63.6807 68.2091 62.0112 71.4599 59.561C74.7107 57.1108 78.1605 54.5501 81.8093 51.8787C85.628 49.1532 89.1628 46.5653 92.4136 44.1151C95.6644 41.665 97.9449 39.9954 99.2551 39.1064L100.214 37.246C98.6602 35.5744 96.8163 34.4665 94.6821 33.9223C92.6597 33.4367 90.4652 33.1473 88.0985 33.0542C85.8438 33.0195 83.475 33.0684 80.9922 33.2007C78.6794 33.2788 76.3978 33.1586 74.1473 32.8399C72.0669 32.4671 70.0197 31.7538 68.0059 30.7001C66.1621 29.5922 64.5549 27.7493 63.1843 25.1713C61.2092 21.5613 61.2897 18.0965 63.426 14.7769C65.5624 11.4573 68.8755 8.61037 73.3656 6.23605C77.9675 3.92026 83.2633 2.32539 89.2529 1.45142C95.3545 0.635996 101.242 0.925276 106.915 2.31926C112.759 3.65904 117.934 6.29543 122.442 10.2284C127.119 14.1072 130.333 19.7249 132.082 27.0816C131.841 28.1007 129.72 30.4261 125.718 34.058C121.716 37.6899 116.72 41.8747 110.728 46.6124C104.848 51.4086 98.4876 56.3111 91.6461 61.3199C84.8045 66.3286 78.3675 70.6902 72.3349 74.4045C66.4142 78.1774 61.4121 80.8563 57.3286 82.4414C53.2452 84.0265 51.0216 83.7935 50.658 81.7424ZM74.8149 16.6564C74.475 16.7648 73.8199 17.2093 72.8496 17.9899C71.8793 18.7705 71.1951 19.2714 70.7971 19.4925C73.6888 22.1507 77.2689 24.0239 81.5374 25.1122C85.9759 26.1463 90.4789 26.6416 95.0465 26.5981C99.784 26.5004 104.387 25.9745 108.856 25.0203C113.382 23.9534 117.321 22.6502 120.67 21.1107C120.713 18.2703 119.759 16.1249 117.808 14.6745C116.026 13.1698 113.646 12.1389 110.666 11.5817C107.798 11.0831 104.53 10.9477 100.861 11.1755C97.3632 11.349 93.8897 11.7503 90.4409 12.3792C87.104 13.0666 84.0199 13.8147 81.1886 14.6235C78.3573 15.4323 76.2327 16.11 74.8149 16.6564Z"/>
<path d="M132.309 60.2274C128.637 70.0867 126.801 76.0658 126.801 78.1647C126.801 79.0485 127.02 79.4904 127.458 79.4904C128.664 79.4904 130.418 77.7229 132.72 74.1879L134.488 75.8863C133.035 78.51 131.309 80.6917 129.308 82.4316C127.335 84.1439 125.732 85 124.499 85C121.95 85 120.676 83.702 120.676 81.106C120.676 79.0899 121.142 76.632 122.074 73.7322C123.005 70.8324 123.471 69.3687 123.471 69.341C123.334 69.5896 123.005 70.1696 122.485 71.0809C121.964 71.9647 121.58 72.6275 121.334 73.0694C121.087 73.5112 120.676 74.1879 120.1 75.0992C119.552 75.983 119.087 76.6872 118.703 77.2119C118.347 77.7091 117.853 78.3581 117.223 79.159C116.62 79.9599 116.072 80.5951 115.579 81.0645C115.113 81.534 114.551 82.0588 113.893 82.6387C113.236 83.1911 112.605 83.6191 112.003 83.9229C110.632 84.641 109.29 85 107.974 85C104.713 85 103.083 83.1911 103.083 79.5732C103.083 77.9162 103.672 75.3478 104.85 71.868C106.029 68.3606 106.618 66.3032 106.618 65.6956C106.618 65.0604 106.426 64.7428 106.042 64.7428C104.946 64.7428 103.425 66.4965 101.479 70.0039L98.8076 68.3882C102.562 62.3401 106.179 59.316 109.66 59.316C110.811 59.316 111.729 59.6474 112.414 60.3102C113.099 60.9454 113.414 61.9396 113.359 63.2929C113.332 64.6185 112.66 67.0074 111.345 70.4595C110.057 73.8841 109.413 76.5077 109.413 78.3304C109.413 79.3247 109.865 79.8218 110.769 79.8218C111.811 79.8218 113.044 79.159 114.469 77.8333C115.921 76.4801 117.319 74.8369 118.662 72.9037C120.799 69.8658 123.019 66.3031 125.321 62.2158L126.431 60.2274H132.309Z"/>
<path d="M159.398 60.2274H165.81L162.563 72.6137C162.042 74.3536 161.782 75.9416 161.782 77.3776C161.782 78.7861 162.029 79.4904 162.522 79.4904C163.015 79.4904 163.687 79.0623 164.536 78.2062C165.413 77.3224 166.153 76.4387 166.756 75.5549L167.701 74.2293L169.469 75.8863C168.564 77.6538 167.413 79.2694 166.016 80.7331C163.303 83.5777 160.946 85 158.946 85C156.589 85 155.411 83.1635 155.411 79.4904C155.411 78.8828 155.438 78.4271 155.493 78.1233C155.082 79.5318 154.301 80.7746 153.15 81.8516C150.957 83.9505 148.477 85 145.71 85C142.969 85 140.763 84.061 139.091 82.183C137.447 80.2775 136.625 77.9024 136.625 75.0578C136.625 70.639 138.05 66.9107 140.9 63.8728C143.75 60.8349 147.093 59.316 150.93 59.316C152.848 59.316 154.438 59.8545 155.698 60.9316C156.959 61.9811 157.781 63.3619 158.165 65.0742L159.398 60.2274ZM152.533 62.8786C150.944 62.8786 149.45 63.5552 148.053 64.9085C146.682 66.2341 145.627 67.8497 144.887 69.7553C144.147 71.6333 143.778 73.4698 143.778 75.2649C143.778 77.06 144.161 78.51 144.928 79.6146C145.723 80.7193 146.929 81.2717 148.546 81.2717C150.19 81.2717 151.67 80.526 152.985 79.0347C155.479 76.1625 156.726 72.7518 156.726 68.8025C156.726 64.8532 155.328 62.8786 152.533 62.8786Z"/>
<path d="M191.625 79.2418C188.747 83.0806 185.308 85 181.307 85C178.622 85 176.347 84.0196 174.484 82.0588C172.62 80.0703 171.688 77.5434 171.688 74.4778C171.688 70.3629 173.223 66.8141 176.292 63.8314C179.362 60.8211 182.801 59.316 186.61 59.316C188.583 59.316 190.268 59.7164 191.666 60.5173C193.091 61.2906 194.009 62.3539 194.42 63.7071C195.681 58.4875 197.489 52.4393 199.846 45.5626C202.23 38.6583 204.423 33.2315 206.423 29.2823H213C210.451 34.3638 207.314 42.9804 203.587 55.132C199.86 67.2559 197.996 74.8369 197.996 77.8748C197.996 78.9518 198.216 79.4904 198.654 79.4904C199.75 79.4904 201.504 77.7367 203.916 74.2293L205.683 75.8863C203.957 78.9794 202.107 81.2717 200.134 82.763C198.161 84.2543 196.571 85 195.366 85C194.187 85 193.255 84.5719 192.57 83.7158C191.913 82.832 191.584 81.5617 191.584 79.9046C191.584 79.8494 191.584 79.7527 191.584 79.6146C191.611 79.4489 191.625 79.3247 191.625 79.2418ZM179.129 74.2293C179.129 78.6757 180.828 80.8988 184.226 80.8988C187.405 80.8988 190.022 78.7585 192.077 74.4778C193.036 72.4618 193.516 70.8324 193.516 69.5896C193.516 65.1156 191.83 62.8786 188.46 62.8786C186.213 62.8786 184.089 63.9281 182.088 66.027C180.115 68.0983 179.129 70.8324 179.129 74.2293Z"/>
<path d="M133.406 39.6328C134.747 35.4661 136.115 31.9766 137.508 29.1641L139.93 29.3594C139.786 29.776 139.435 30.7786 138.875 32.3672C137.664 35.8698 136.883 38.2917 136.531 39.6328H139.598L139.285 40.9219H136.121C134.923 44.6198 134.324 46.8724 134.324 47.6797C134.324 48.474 134.402 48.8711 134.559 48.8711C134.728 48.8711 134.878 48.8385 135.008 48.7734C135.359 48.5781 136.115 47.6276 137.273 45.9219L138.074 46.6445C137.202 48.2331 136.303 49.4115 135.379 50.1797C134.454 50.9349 133.693 51.3125 133.094 51.3125C132.495 51.3125 132.039 51.1042 131.727 50.6875C131.427 50.2708 131.277 49.737 131.277 49.0859C131.277 47.4323 131.857 44.7109 133.016 40.9219H130.965L131.277 39.6328H133.406Z"/>
<path d="M143.133 47.1523C143.211 48.6497 144.22 49.3984 146.16 49.3984C146.876 49.3984 147.618 49.1966 148.387 48.793C149.168 48.3763 149.799 47.888 150.281 47.3281L151.121 47.875C150.04 49.6849 148.315 50.7917 145.945 51.1953C145.424 51.2734 144.923 51.3125 144.441 51.3125C143.035 51.3125 141.863 50.8503 140.926 49.9258C139.988 48.9883 139.52 47.849 139.52 46.5078C139.52 45.1667 139.93 43.9297 140.75 42.7969C141.57 41.651 142.592 40.7656 143.816 40.1406C145.053 39.5156 146.271 39.2031 147.469 39.2031C148.667 39.2031 149.702 39.4766 150.574 40.0234C151.46 40.5703 151.909 41.306 151.922 42.2305C151.948 43.1549 151.681 43.9557 151.121 44.6328C150.561 45.2969 149.852 45.8047 148.992 46.1562C147.286 46.8464 145.613 47.1914 143.973 47.1914L143.133 47.1523ZM143.016 46.0781C144.461 46.026 145.62 45.7982 146.492 45.3945C147.378 44.9779 147.99 44.5091 148.328 43.9883C148.68 43.4544 148.855 42.901 148.855 42.3281C148.855 41.7422 148.706 41.3125 148.406 41.0391C148.107 40.7526 147.788 40.6094 147.449 40.6094C146.616 40.6094 145.848 40.9023 145.145 41.4883C144.454 42.0612 143.927 42.7643 143.562 43.5977C143.198 44.418 143.016 45.2448 143.016 46.0781Z"/>
<path d="M164.129 39.6328H167.176L165.633 45.4727C165.385 46.293 165.262 47.0417 165.262 47.7188C165.262 48.3828 165.379 48.7148 165.613 48.7148C165.848 48.7148 166.167 48.513 166.57 48.1094C166.987 47.6927 167.339 47.276 167.625 46.8594L168.074 46.2344L168.914 47.0156C168.484 47.849 167.938 48.6107 167.273 49.3008C165.984 50.6419 164.865 51.3125 163.914 51.3125C162.794 51.3125 162.234 50.4466 162.234 48.7148C162.234 48.4284 162.247 48.2135 162.273 48.0703C162.078 48.7344 161.707 49.3203 161.16 49.8281C160.118 50.8177 158.94 51.3125 157.625 51.3125C156.323 51.3125 155.275 50.8698 154.48 49.9844C153.699 49.0859 153.309 47.9661 153.309 46.625C153.309 44.5417 153.986 42.7839 155.34 41.3516C156.694 39.9193 158.283 39.2031 160.105 39.2031C161.017 39.2031 161.772 39.457 162.371 39.9648C162.97 40.4596 163.361 41.1107 163.543 41.918L164.129 39.6328ZM160.867 40.8828C160.112 40.8828 159.402 41.2018 158.738 41.8398C158.087 42.4648 157.586 43.2266 157.234 44.125C156.883 45.0104 156.707 45.8763 156.707 46.7227C156.707 47.569 156.889 48.2526 157.254 48.7734C157.632 49.2943 158.204 49.5547 158.973 49.5547C159.754 49.5547 160.457 49.2031 161.082 48.5C162.267 47.1458 162.859 45.5378 162.859 43.6758C162.859 41.8138 162.195 40.8828 160.867 40.8828Z"/>
<path d="M182.41 51H179.52L179.891 49.7109C180.021 49.2031 180.255 48.4609 180.594 47.4844C181.349 45.362 181.727 43.7083 181.727 42.5234C181.727 42.0156 181.512 41.7617 181.082 41.7617C180.548 41.7617 179.917 42.0807 179.188 42.7188C178.471 43.3438 177.781 44.112 177.117 45.0234C176.01 46.5469 174.917 48.2266 173.836 50.0625L173.289 51H170.535C170.535 51 170.737 50.388 171.141 49.1641C172.273 45.7786 172.84 43.7734 172.84 43.1484C172.84 42.5104 172.736 42.1914 172.527 42.1914C172.15 42.1914 171.701 42.6406 171.18 43.5391C171.062 43.7474 170.965 43.9167 170.887 44.0469C170.809 44.1641 170.717 44.3138 170.613 44.4961C170.522 44.6654 170.464 44.7695 170.438 44.8086L169.129 44.0469C170.145 42.3932 171.076 41.1758 171.922 40.3945C172.768 39.6003 173.634 39.2031 174.52 39.2031C174.923 39.2031 175.268 39.3724 175.555 39.7109C175.854 40.0495 176.004 40.4531 176.004 40.9219C176.004 41.3776 175.978 41.7878 175.926 42.1523C175.874 42.5039 175.815 42.8294 175.75 43.1289C175.685 43.4284 175.594 43.7865 175.477 44.2031C175.359 44.6198 175.262 44.9388 175.184 45.1602C175.118 45.3815 175.027 45.681 174.91 46.0586C174.793 46.4362 174.721 46.6576 174.695 46.7227C174.956 46.2669 175.379 45.5833 175.965 44.6719C176.551 43.7604 176.935 43.1875 177.117 42.9531C177.312 42.7057 177.566 42.3932 177.879 42.0156C178.191 41.625 178.465 41.319 178.699 41.0977C178.947 40.8763 179.24 40.6289 179.578 40.3555C179.917 40.082 180.236 39.8737 180.535 39.7305C181.264 39.3789 182 39.2031 182.742 39.2031C183.497 39.2031 184.07 39.418 184.461 39.8477C184.852 40.2643 185.047 40.7591 185.047 41.332C185.047 41.8919 184.956 42.4779 184.773 43.0898C184.604 43.7018 184.363 44.418 184.051 45.2383C183.738 46.0456 183.536 46.5924 183.445 46.8789C184.695 44.8477 185.652 43.4154 186.316 42.582C188.126 40.3294 189.917 39.2031 191.688 39.2031C192.56 39.2031 193.185 39.4115 193.562 39.8281C193.94 40.2448 194.129 40.8112 194.129 41.5273C194.129 42.2435 193.823 43.4349 193.211 45.1016C192.599 46.7552 192.293 47.7708 192.293 48.1484C192.293 48.526 192.41 48.7148 192.645 48.7148C193.165 48.7148 193.992 47.888 195.125 46.2344L195.965 47.0156C195.197 48.3828 194.35 49.444 193.426 50.1992C192.501 50.9414 191.707 51.3125 191.043 51.3125C190.392 51.3125 189.936 51.0977 189.676 50.668C189.415 50.2383 189.285 49.7305 189.285 49.1445C189.285 48.5456 189.546 47.4974 190.066 46C190.587 44.4896 190.848 43.3307 190.848 42.5234C190.848 42.0156 190.62 41.7617 190.164 41.7617C188.862 41.7617 186.98 43.6693 184.52 47.4844C183.517 49.0339 182.814 50.2057 182.41 51Z"/>
</mask>
<path d="M39.0641 61.2216C36.406 62.3815 33.693 63.21 30.9252 63.7071C28.1848 64.2319 25.5814 64.4942 23.115 64.4942C20.6761 64.4942 18.47 64.3561 16.497 64.08C14.5513 63.8314 12.6056 63.3895 10.6599 62.7543C8.74163 62.0915 7.08369 61.2492 5.68608 60.2274C2.56203 57.9904 1 54.8282 1 50.7409C1 48.3105 1.56178 46.0459 2.68535 43.947C3.80891 41.8205 5.27502 40.0668 7.08369 38.6859C10.9202 35.7033 15.1131 34.212 19.6621 34.212C25.1155 34.212 29.1713 35.8276 31.8295 39.0588C33.1449 40.6882 33.8026 42.6628 33.8026 44.9827C33.8026 47.3025 32.7064 49.3186 30.5141 51.0308C28.3492 52.7155 26.0609 53.5578 23.6494 53.5578C23.0739 53.5578 22.7862 53.2678 22.7862 52.6879C22.7862 52.0803 23.0602 51.6522 23.6083 51.4037C24.1564 51.1275 24.8141 50.8789 25.5814 50.658C26.3487 50.4094 27.116 50.1195 27.8833 49.7881C29.7742 48.9319 30.7196 47.5511 30.7196 45.6455C30.7196 43.7123 29.8427 42.2624 28.0888 41.2958C26.3624 40.3015 23.348 39.8044 19.0455 39.8044C14.7431 39.8044 11.4135 40.9091 9.05677 43.1185C6.70003 45.3003 5.52166 47.9101 5.52166 50.948C5.52166 54.9525 7.28922 57.797 10.8243 59.4817C13.9758 61.0006 17.7438 61.7601 22.1285 61.7601C29.6646 61.7601 35.762 59.5922 40.4206 55.2563C43.7091 52.2184 45.3534 48.3934 45.3534 43.7813C45.3534 41.0196 44.3805 38.3407 42.4348 35.7447C41.5853 34.5848 40.6399 33.4387 39.5985 32.3064C38.5572 31.1741 37.5158 30.0418 36.4745 28.9095C35.4331 27.7771 34.4877 26.6448 33.6382 25.5125C31.6925 23.027 30.7196 20.7071 30.7196 18.553C30.7196 16.3989 31.0622 14.5485 31.7473 13.0019C32.4598 11.4278 33.3915 10.0745 34.5425 8.94221C35.7209 7.78229 37.0637 6.78807 38.5709 5.95955C41.6127 4.24729 44.8327 3.39115 48.2308 3.39115C51.1904 3.39115 53.9445 4.1092 56.4931 5.54529C59.2883 7.09186 60.6859 9.45313 60.6859 12.6291C60.6859 13.8719 60.2474 14.9628 59.3705 15.9017C58.4936 16.8407 57.507 17.3102 56.4109 17.3102C55.3147 17.3102 54.4104 16.9926 53.6979 16.3574C53.0128 15.7222 52.6702 15.018 52.6702 14.2447C52.6702 13.4438 52.9991 12.6015 53.6568 11.7177C54.3419 10.8064 54.6844 10.0607 54.6844 9.48075C54.6844 8.87317 54.4378 8.32082 53.9445 7.82371C53.4512 7.3266 52.8209 6.95377 52.0536 6.70522C50.519 6.23572 49.1214 6.00098 47.8608 6.00098C44.956 6.00098 42.4622 6.87092 40.3795 8.6108C38.2968 10.3507 37.2555 12.7672 37.2555 15.8603C37.2555 17.545 38.2968 19.5196 40.3795 21.7842C41.3113 22.7784 42.3252 23.8417 43.4214 24.974C44.5449 26.0787 45.6685 27.2662 46.7921 28.5366C47.9156 29.807 48.9433 31.1188 49.875 32.4721C51.9577 35.4547 52.9991 38.5479 52.9991 41.7514C52.9991 44.955 52.3688 47.8549 51.1082 50.4509C49.8476 53.0469 48.1897 55.201 46.1344 56.9133C44.1065 58.5979 41.7497 60.034 39.0641 61.2216Z" fill="white"/>
<path d="M50.658 81.7424C52.0197 77.4449 53.7602 74.2045 55.8793 72.021C58.1684 69.7834 61.0814 67.2996 64.6184 64.5697C65.9286 63.6807 68.2091 62.0112 71.4599 59.561C74.7107 57.1108 78.1605 54.5501 81.8093 51.8787C85.628 49.1532 89.1628 46.5653 92.4136 44.1151C95.6644 41.665 97.9449 39.9954 99.2551 39.1064L100.214 37.246C98.6602 35.5744 96.8163 34.4665 94.6821 33.9223C92.6597 33.4367 90.4652 33.1473 88.0985 33.0542C85.8438 33.0195 83.475 33.0684 80.9922 33.2007C78.6794 33.2788 76.3978 33.1586 74.1473 32.8399C72.0669 32.4671 70.0197 31.7538 68.0059 30.7001C66.1621 29.5922 64.5549 27.7493 63.1843 25.1713C61.2092 21.5613 61.2897 18.0965 63.426 14.7769C65.5624 11.4573 68.8755 8.61037 73.3656 6.23605C77.9675 3.92026 83.2633 2.32539 89.2529 1.45142C95.3545 0.635996 101.242 0.925276 106.915 2.31926C112.759 3.65904 117.934 6.29543 122.442 10.2284C127.119 14.1072 130.333 19.7249 132.082 27.0816C131.841 28.1007 129.72 30.4261 125.718 34.058C121.716 37.6899 116.72 41.8747 110.728 46.6124C104.848 51.4086 98.4876 56.3111 91.6461 61.3199C84.8045 66.3286 78.3675 70.6902 72.3349 74.4045C66.4142 78.1774 61.4121 80.8563 57.3286 82.4414C53.2452 84.0265 51.0216 83.7935 50.658 81.7424ZM74.8149 16.6564C74.475 16.7648 73.8199 17.2093 72.8496 17.9899C71.8793 18.7705 71.1951 19.2714 70.7971 19.4925C73.6888 22.1507 77.2689 24.0239 81.5374 25.1122C85.9759 26.1463 90.4789 26.6416 95.0465 26.5981C99.784 26.5004 104.387 25.9745 108.856 25.0203C113.382 23.9534 117.321 22.6502 120.67 21.1107C120.713 18.2703 119.759 16.1249 117.808 14.6745C116.026 13.1698 113.646 12.1389 110.666 11.5817C107.798 11.0831 104.53 10.9477 100.861 11.1755C97.3632 11.349 93.8897 11.7503 90.4409 12.3792C87.104 13.0666 84.0199 13.8147 81.1886 14.6235C78.3573 15.4323 76.2327 16.11 74.8149 16.6564Z" fill="white"/>
<path d="M132.309 60.2274C128.637 70.0867 126.801 76.0658 126.801 78.1647C126.801 79.0485 127.02 79.4904 127.458 79.4904C128.664 79.4904 130.418 77.7229 132.72 74.1879L134.488 75.8863C133.035 78.51 131.309 80.6917 129.308 82.4316C127.335 84.1439 125.732 85 124.499 85C121.95 85 120.676 83.702 120.676 81.106C120.676 79.0899 121.142 76.632 122.074 73.7322C123.005 70.8324 123.471 69.3687 123.471 69.341C123.334 69.5896 123.005 70.1696 122.485 71.0809C121.964 71.9647 121.58 72.6275 121.334 73.0694C121.087 73.5112 120.676 74.1879 120.1 75.0992C119.552 75.983 119.087 76.6872 118.703 77.2119C118.347 77.7091 117.853 78.3581 117.223 79.159C116.62 79.9599 116.072 80.5951 115.579 81.0645C115.113 81.534 114.551 82.0588 113.893 82.6387C113.236 83.1911 112.605 83.6191 112.003 83.9229C110.632 84.641 109.29 85 107.974 85C104.713 85 103.083 83.1911 103.083 79.5732C103.083 77.9162 103.672 75.3478 104.85 71.868C106.029 68.3606 106.618 66.3032 106.618 65.6956C106.618 65.0604 106.426 64.7428 106.042 64.7428C104.946 64.7428 103.425 66.4965 101.479 70.0039L98.8076 68.3882C102.562 62.3401 106.179 59.316 109.66 59.316C110.811 59.316 111.729 59.6474 112.414 60.3102C113.099 60.9454 113.414 61.9396 113.359 63.2929C113.332 64.6185 112.66 67.0074 111.345 70.4595C110.057 73.8841 109.413 76.5077 109.413 78.3304C109.413 79.3247 109.865 79.8218 110.769 79.8218C111.811 79.8218 113.044 79.159 114.469 77.8333C115.921 76.4801 117.319 74.8369 118.662 72.9037C120.799 69.8658 123.019 66.3031 125.321 62.2158L126.431 60.2274H132.309Z" fill="white"/>
<path d="M159.398 60.2274H165.81L162.563 72.6137C162.042 74.3536 161.782 75.9416 161.782 77.3776C161.782 78.7861 162.029 79.4904 162.522 79.4904C163.015 79.4904 163.687 79.0623 164.536 78.2062C165.413 77.3224 166.153 76.4387 166.756 75.5549L167.701 74.2293L169.469 75.8863C168.564 77.6538 167.413 79.2694 166.016 80.7331C163.303 83.5777 160.946 85 158.946 85C156.589 85 155.411 83.1635 155.411 79.4904C155.411 78.8828 155.438 78.4271 155.493 78.1233C155.082 79.5318 154.301 80.7746 153.15 81.8516C150.957 83.9505 148.477 85 145.71 85C142.969 85 140.763 84.061 139.091 82.183C137.447 80.2775 136.625 77.9024 136.625 75.0578C136.625 70.639 138.05 66.9107 140.9 63.8728C143.75 60.8349 147.093 59.316 150.93 59.316C152.848 59.316 154.438 59.8545 155.698 60.9316C156.959 61.9811 157.781 63.3619 158.165 65.0742L159.398 60.2274ZM152.533 62.8786C150.944 62.8786 149.45 63.5552 148.053 64.9085C146.682 66.2341 145.627 67.8497 144.887 69.7553C144.147 71.6333 143.778 73.4698 143.778 75.2649C143.778 77.06 144.161 78.51 144.928 79.6146C145.723 80.7193 146.929 81.2717 148.546 81.2717C150.19 81.2717 151.67 80.526 152.985 79.0347C155.479 76.1625 156.726 72.7518 156.726 68.8025C156.726 64.8532 155.328 62.8786 152.533 62.8786Z" fill="white"/>
<path d="M191.625 79.2418C188.747 83.0806 185.308 85 181.307 85C178.622 85 176.347 84.0196 174.484 82.0588C172.62 80.0703 171.688 77.5434 171.688 74.4778C171.688 70.3629 173.223 66.8141 176.292 63.8314C179.362 60.8211 182.801 59.316 186.61 59.316C188.583 59.316 190.268 59.7164 191.666 60.5173C193.091 61.2906 194.009 62.3539 194.42 63.7071C195.681 58.4875 197.489 52.4393 199.846 45.5626C202.23 38.6583 204.423 33.2315 206.423 29.2823H213C210.451 34.3638 207.314 42.9804 203.587 55.132C199.86 67.2559 197.996 74.8369 197.996 77.8748C197.996 78.9518 198.216 79.4904 198.654 79.4904C199.75 79.4904 201.504 77.7367 203.916 74.2293L205.683 75.8863C203.957 78.9794 202.107 81.2717 200.134 82.763C198.161 84.2543 196.571 85 195.366 85C194.187 85 193.255 84.5719 192.57 83.7158C191.913 82.832 191.584 81.5617 191.584 79.9046C191.584 79.8494 191.584 79.7527 191.584 79.6146C191.611 79.4489 191.625 79.3247 191.625 79.2418ZM179.129 74.2293C179.129 78.6757 180.828 80.8988 184.226 80.8988C187.405 80.8988 190.022 78.7585 192.077 74.4778C193.036 72.4618 193.516 70.8324 193.516 69.5896C193.516 65.1156 191.83 62.8786 188.46 62.8786C186.213 62.8786 184.089 63.9281 182.088 66.027C180.115 68.0983 179.129 70.8324 179.129 74.2293Z" fill="white"/>
<path d="M133.406 39.6328C134.747 35.4661 136.115 31.9766 137.508 29.1641L139.93 29.3594C139.786 29.776 139.435 30.7786 138.875 32.3672C137.664 35.8698 136.883 38.2917 136.531 39.6328H139.598L139.285 40.9219H136.121C134.923 44.6198 134.324 46.8724 134.324 47.6797C134.324 48.474 134.402 48.8711 134.559 48.8711C134.728 48.8711 134.878 48.8385 135.008 48.7734C135.359 48.5781 136.115 47.6276 137.273 45.9219L138.074 46.6445C137.202 48.2331 136.303 49.4115 135.379 50.1797C134.454 50.9349 133.693 51.3125 133.094 51.3125C132.495 51.3125 132.039 51.1042 131.727 50.6875C131.427 50.2708 131.277 49.737 131.277 49.0859C131.277 47.4323 131.857 44.7109 133.016 40.9219H130.965L131.277 39.6328H133.406Z" fill="#BEDFF1"/>
<path d="M143.133 47.1523C143.211 48.6497 144.22 49.3984 146.16 49.3984C146.876 49.3984 147.618 49.1966 148.387 48.793C149.168 48.3763 149.799 47.888 150.281 47.3281L151.121 47.875C150.04 49.6849 148.315 50.7917 145.945 51.1953C145.424 51.2734 144.923 51.3125 144.441 51.3125C143.035 51.3125 141.863 50.8503 140.926 49.9258C139.988 48.9883 139.52 47.849 139.52 46.5078C139.52 45.1667 139.93 43.9297 140.75 42.7969C141.57 41.651 142.592 40.7656 143.816 40.1406C145.053 39.5156 146.271 39.2031 147.469 39.2031C148.667 39.2031 149.702 39.4766 150.574 40.0234C151.46 40.5703 151.909 41.306 151.922 42.2305C151.948 43.1549 151.681 43.9557 151.121 44.6328C150.561 45.2969 149.852 45.8047 148.992 46.1562C147.286 46.8464 145.613 47.1914 143.973 47.1914L143.133 47.1523ZM143.016 46.0781C144.461 46.026 145.62 45.7982 146.492 45.3945C147.378 44.9779 147.99 44.5091 148.328 43.9883C148.68 43.4544 148.855 42.901 148.855 42.3281C148.855 41.7422 148.706 41.3125 148.406 41.0391C148.107 40.7526 147.788 40.6094 147.449 40.6094C146.616 40.6094 145.848 40.9023 145.145 41.4883C144.454 42.0612 143.927 42.7643 143.562 43.5977C143.198 44.418 143.016 45.2448 143.016 46.0781Z" fill="#BEDFF1"/>
<path d="M164.129 39.6328H167.176L165.633 45.4727C165.385 46.293 165.262 47.0417 165.262 47.7188C165.262 48.3828 165.379 48.7148 165.613 48.7148C165.848 48.7148 166.167 48.513 166.57 48.1094C166.987 47.6927 167.339 47.276 167.625 46.8594L168.074 46.2344L168.914 47.0156C168.484 47.849 167.938 48.6107 167.273 49.3008C165.984 50.6419 164.865 51.3125 163.914 51.3125C162.794 51.3125 162.234 50.4466 162.234 48.7148C162.234 48.4284 162.247 48.2135 162.273 48.0703C162.078 48.7344 161.707 49.3203 161.16 49.8281C160.118 50.8177 158.94 51.3125 157.625 51.3125C156.323 51.3125 155.275 50.8698 154.48 49.9844C153.699 49.0859 153.309 47.9661 153.309 46.625C153.309 44.5417 153.986 42.7839 155.34 41.3516C156.694 39.9193 158.283 39.2031 160.105 39.2031C161.017 39.2031 161.772 39.457 162.371 39.9648C162.97 40.4596 163.361 41.1107 163.543 41.918L164.129 39.6328ZM160.867 40.8828C160.112 40.8828 159.402 41.2018 158.738 41.8398C158.087 42.4648 157.586 43.2266 157.234 44.125C156.883 45.0104 156.707 45.8763 156.707 46.7227C156.707 47.569 156.889 48.2526 157.254 48.7734C157.632 49.2943 158.204 49.5547 158.973 49.5547C159.754 49.5547 160.457 49.2031 161.082 48.5C162.267 47.1458 162.859 45.5378 162.859 43.6758C162.859 41.8138 162.195 40.8828 160.867 40.8828Z" fill="#BEDFF1"/>
<path d="M182.41 51H179.52L179.891 49.7109C180.021 49.2031 180.255 48.4609 180.594 47.4844C181.349 45.362 181.727 43.7083 181.727 42.5234C181.727 42.0156 181.512 41.7617 181.082 41.7617C180.548 41.7617 179.917 42.0807 179.188 42.7188C178.471 43.3438 177.781 44.112 177.117 45.0234C176.01 46.5469 174.917 48.2266 173.836 50.0625L173.289 51H170.535C170.535 51 170.737 50.388 171.141 49.1641C172.273 45.7786 172.84 43.7734 172.84 43.1484C172.84 42.5104 172.736 42.1914 172.527 42.1914C172.15 42.1914 171.701 42.6406 171.18 43.5391C171.062 43.7474 170.965 43.9167 170.887 44.0469C170.809 44.1641 170.717 44.3138 170.613 44.4961C170.522 44.6654 170.464 44.7695 170.438 44.8086L169.129 44.0469C170.145 42.3932 171.076 41.1758 171.922 40.3945C172.768 39.6003 173.634 39.2031 174.52 39.2031C174.923 39.2031 175.268 39.3724 175.555 39.7109C175.854 40.0495 176.004 40.4531 176.004 40.9219C176.004 41.3776 175.978 41.7878 175.926 42.1523C175.874 42.5039 175.815 42.8294 175.75 43.1289C175.685 43.4284 175.594 43.7865 175.477 44.2031C175.359 44.6198 175.262 44.9388 175.184 45.1602C175.118 45.3815 175.027 45.681 174.91 46.0586C174.793 46.4362 174.721 46.6576 174.695 46.7227C174.956 46.2669 175.379 45.5833 175.965 44.6719C176.551 43.7604 176.935 43.1875 177.117 42.9531C177.312 42.7057 177.566 42.3932 177.879 42.0156C178.191 41.625 178.465 41.319 178.699 41.0977C178.947 40.8763 179.24 40.6289 179.578 40.3555C179.917 40.082 180.236 39.8737 180.535 39.7305C181.264 39.3789 182 39.2031 182.742 39.2031C183.497 39.2031 184.07 39.418 184.461 39.8477C184.852 40.2643 185.047 40.7591 185.047 41.332C185.047 41.8919 184.956 42.4779 184.773 43.0898C184.604 43.7018 184.363 44.418 184.051 45.2383C183.738 46.0456 183.536 46.5924 183.445 46.8789C184.695 44.8477 185.652 43.4154 186.316 42.582C188.126 40.3294 189.917 39.2031 191.688 39.2031C192.56 39.2031 193.185 39.4115 193.562 39.8281C193.94 40.2448 194.129 40.8112 194.129 41.5273C194.129 42.2435 193.823 43.4349 193.211 45.1016C192.599 46.7552 192.293 47.7708 192.293 48.1484C192.293 48.526 192.41 48.7148 192.645 48.7148C193.165 48.7148 193.992 47.888 195.125 46.2344L195.965 47.0156C195.197 48.3828 194.35 49.444 193.426 50.1992C192.501 50.9414 191.707 51.3125 191.043 51.3125C190.392 51.3125 189.936 51.0977 189.676 50.668C189.415 50.2383 189.285 49.7305 189.285 49.1445C189.285 48.5456 189.546 47.4974 190.066 46C190.587 44.4896 190.848 43.3307 190.848 42.5234C190.848 42.0156 190.62 41.7617 190.164 41.7617C188.862 41.7617 186.98 43.6693 184.52 47.4844C183.517 49.0339 182.814 50.2057 182.41 51Z" fill="#BEDFF1"/>
<path d="M39.0641 61.2216C36.406 62.3815 33.693 63.21 30.9252 63.7071C28.1848 64.2319 25.5814 64.4942 23.115 64.4942C20.6761 64.4942 18.47 64.3561 16.497 64.08C14.5513 63.8314 12.6056 63.3895 10.6599 62.7543C8.74163 62.0915 7.08369 61.2492 5.68608 60.2274C2.56203 57.9904 1 54.8282 1 50.7409C1 48.3105 1.56178 46.0459 2.68535 43.947C3.80891 41.8205 5.27502 40.0668 7.08369 38.6859C10.9202 35.7033 15.1131 34.212 19.6621 34.212C25.1155 34.212 29.1713 35.8276 31.8295 39.0588C33.1449 40.6882 33.8026 42.6628 33.8026 44.9827C33.8026 47.3025 32.7064 49.3186 30.5141 51.0308C28.3492 52.7155 26.0609 53.5578 23.6494 53.5578C23.0739 53.5578 22.7862 53.2678 22.7862 52.6879C22.7862 52.0803 23.0602 51.6522 23.6083 51.4037C24.1564 51.1275 24.8141 50.8789 25.5814 50.658C26.3487 50.4094 27.116 50.1195 27.8833 49.7881C29.7742 48.9319 30.7196 47.5511 30.7196 45.6455C30.7196 43.7123 29.8427 42.2624 28.0888 41.2958C26.3624 40.3015 23.348 39.8044 19.0455 39.8044C14.7431 39.8044 11.4135 40.9091 9.05677 43.1185C6.70003 45.3003 5.52166 47.9101 5.52166 50.948C5.52166 54.9525 7.28922 57.797 10.8243 59.4817C13.9758 61.0006 17.7438 61.7601 22.1285 61.7601C29.6646 61.7601 35.762 59.5922 40.4206 55.2563C43.7091 52.2184 45.3534 48.3934 45.3534 43.7813C45.3534 41.0196 44.3805 38.3407 42.4348 35.7447C41.5853 34.5848 40.6399 33.4387 39.5985 32.3064C38.5572 31.1741 37.5158 30.0418 36.4745 28.9095C35.4331 27.7771 34.4877 26.6448 33.6382 25.5125C31.6925 23.027 30.7196 20.7071 30.7196 18.553C30.7196 16.3989 31.0622 14.5485 31.7473 13.0019C32.4598 11.4278 33.3915 10.0745 34.5425 8.94221C35.7209 7.78229 37.0637 6.78807 38.5709 5.95955C41.6127 4.24729 44.8327 3.39115 48.2308 3.39115C51.1904 3.39115 53.9445 4.1092 56.4931 5.54529C59.2883 7.09186 60.6859 9.45313 60.6859 12.6291C60.6859 13.8719 60.2474 14.9628 59.3705 15.9017C58.4936 16.8407 57.507 17.3102 56.4109 17.3102C55.3147 17.3102 54.4104 16.9926 53.6979 16.3574C53.0128 15.7222 52.6702 15.018 52.6702 14.2447C52.6702 13.4438 52.9991 12.6015 53.6568 11.7177C54.3419 10.8064 54.6844 10.0607 54.6844 9.48075C54.6844 8.87317 54.4378 8.32082 53.9445 7.82371C53.4512 7.3266 52.8209 6.95377 52.0536 6.70522C50.519 6.23572 49.1214 6.00098 47.8608 6.00098C44.956 6.00098 42.4622 6.87092 40.3795 8.6108C38.2968 10.3507 37.2555 12.7672 37.2555 15.8603C37.2555 17.545 38.2968 19.5196 40.3795 21.7842C41.3113 22.7784 42.3252 23.8417 43.4214 24.974C44.5449 26.0787 45.6685 27.2662 46.7921 28.5366C47.9156 29.807 48.9433 31.1188 49.875 32.4721C51.9577 35.4547 52.9991 38.5479 52.9991 41.7514C52.9991 44.955 52.3688 47.8549 51.1082 50.4509C49.8476 53.0469 48.1897 55.201 46.1344 56.9133C44.1065 58.5979 41.7497 60.034 39.0641 61.2216Z" stroke="#1C1C1C" stroke-width="2" mask="url(#path-1-outside-1_2_66)"/>
<path d="M50.658 81.7424C52.0197 77.4449 53.7602 74.2045 55.8793 72.021C58.1684 69.7834 61.0814 67.2996 64.6184 64.5697C65.9286 63.6807 68.2091 62.0112 71.4599 59.561C74.7107 57.1108 78.1605 54.5501 81.8093 51.8787C85.628 49.1532 89.1628 46.5653 92.4136 44.1151C95.6644 41.665 97.9449 39.9954 99.2551 39.1064L100.214 37.246C98.6602 35.5744 96.8163 34.4665 94.6821 33.9223C92.6597 33.4367 90.4652 33.1473 88.0985 33.0542C85.8438 33.0195 83.475 33.0684 80.9922 33.2007C78.6794 33.2788 76.3978 33.1586 74.1473 32.8399C72.0669 32.4671 70.0197 31.7538 68.0059 30.7001C66.1621 29.5922 64.5549 27.7493 63.1843 25.1713C61.2092 21.5613 61.2897 18.0965 63.426 14.7769C65.5624 11.4573 68.8755 8.61037 73.3656 6.23605C77.9675 3.92026 83.2633 2.32539 89.2529 1.45142C95.3545 0.635996 101.242 0.925276 106.915 2.31926C112.759 3.65904 117.934 6.29543 122.442 10.2284C127.119 14.1072 130.333 19.7249 132.082 27.0816C131.841 28.1007 129.72 30.4261 125.718 34.058C121.716 37.6899 116.72 41.8747 110.728 46.6124C104.848 51.4086 98.4876 56.3111 91.6461 61.3199C84.8045 66.3286 78.3675 70.6902 72.3349 74.4045C66.4142 78.1774 61.4121 80.8563 57.3286 82.4414C53.2452 84.0265 51.0216 83.7935 50.658 81.7424ZM74.8149 16.6564C74.475 16.7648 73.8199 17.2093 72.8496 17.9899C71.8793 18.7705 71.1951 19.2714 70.7971 19.4925C73.6888 22.1507 77.2689 24.0239 81.5374 25.1122C85.9759 26.1463 90.4789 26.6416 95.0465 26.5981C99.784 26.5004 104.387 25.9745 108.856 25.0203C113.382 23.9534 117.321 22.6502 120.67 21.1107C120.713 18.2703 119.759 16.1249 117.808 14.6745C116.026 13.1698 113.646 12.1389 110.666 11.5817C107.798 11.0831 104.53 10.9477 100.861 11.1755C97.3632 11.349 93.8897 11.7503 90.4409 12.3792C87.104 13.0666 84.0199 13.8147 81.1886 14.6235C78.3573 15.4323 76.2327 16.11 74.8149 16.6564Z" stroke="#1C1C1C" stroke-width="2" mask="url(#path-1-outside-1_2_66)"/>
<path d="M132.309 60.2274C128.637 70.0867 126.801 76.0658 126.801 78.1647C126.801 79.0485 127.02 79.4904 127.458 79.4904C128.664 79.4904 130.418 77.7229 132.72 74.1879L134.488 75.8863C133.035 78.51 131.309 80.6917 129.308 82.4316C127.335 84.1439 125.732 85 124.499 85C121.95 85 120.676 83.702 120.676 81.106C120.676 79.0899 121.142 76.632 122.074 73.7322C123.005 70.8324 123.471 69.3687 123.471 69.341C123.334 69.5896 123.005 70.1696 122.485 71.0809C121.964 71.9647 121.58 72.6275 121.334 73.0694C121.087 73.5112 120.676 74.1879 120.1 75.0992C119.552 75.983 119.087 76.6872 118.703 77.2119C118.347 77.7091 117.853 78.3581 117.223 79.159C116.62 79.9599 116.072 80.5951 115.579 81.0645C115.113 81.534 114.551 82.0588 113.893 82.6387C113.236 83.1911 112.605 83.6191 112.003 83.9229C110.632 84.641 109.29 85 107.974 85C104.713 85 103.083 83.1911 103.083 79.5732C103.083 77.9162 103.672 75.3478 104.85 71.868C106.029 68.3606 106.618 66.3032 106.618 65.6956C106.618 65.0604 106.426 64.7428 106.042 64.7428C104.946 64.7428 103.425 66.4965 101.479 70.0039L98.8076 68.3882C102.562 62.3401 106.179 59.316 109.66 59.316C110.811 59.316 111.729 59.6474 112.414 60.3102C113.099 60.9454 113.414 61.9396 113.359 63.2929C113.332 64.6185 112.66 67.0074 111.345 70.4595C110.057 73.8841 109.413 76.5077 109.413 78.3304C109.413 79.3247 109.865 79.8218 110.769 79.8218C111.811 79.8218 113.044 79.159 114.469 77.8333C115.921 76.4801 117.319 74.8369 118.662 72.9037C120.799 69.8658 123.019 66.3031 125.321 62.2158L126.431 60.2274H132.309Z" stroke="#1C1C1C" stroke-width="2" mask="url(#path-1-outside-1_2_66)"/>
<path d="M159.398 60.2274H165.81L162.563 72.6137C162.042 74.3536 161.782 75.9416 161.782 77.3776C161.782 78.7861 162.029 79.4904 162.522 79.4904C163.015 79.4904 163.687 79.0623 164.536 78.2062C165.413 77.3224 166.153 76.4387 166.756 75.5549L167.701 74.2293L169.469 75.8863C168.564 77.6538 167.413 79.2694 166.016 80.7331C163.303 83.5777 160.946 85 158.946 85C156.589 85 155.411 83.1635 155.411 79.4904C155.411 78.8828 155.438 78.4271 155.493 78.1233C155.082 79.5318 154.301 80.7746 153.15 81.8516C150.957 83.9505 148.477 85 145.71 85C142.969 85 140.763 84.061 139.091 82.183C137.447 80.2775 136.625 77.9024 136.625 75.0578C136.625 70.639 138.05 66.9107 140.9 63.8728C143.75 60.8349 147.093 59.316 150.93 59.316C152.848 59.316 154.438 59.8545 155.698 60.9316C156.959 61.9811 157.781 63.3619 158.165 65.0742L159.398 60.2274ZM152.533 62.8786C150.944 62.8786 149.45 63.5552 148.053 64.9085C146.682 66.2341 145.627 67.8497 144.887 69.7553C144.147 71.6333 143.778 73.4698 143.778 75.2649C143.778 77.06 144.161 78.51 144.928 79.6146C145.723 80.7193 146.929 81.2717 148.546 81.2717C150.19 81.2717 151.67 80.526 152.985 79.0347C155.479 76.1625 156.726 72.7518 156.726 68.8025C156.726 64.8532 155.328 62.8786 152.533 62.8786Z" stroke="#1C1C1C" stroke-width="2" mask="url(#path-1-outside-1_2_66)"/>
<path d="M191.625 79.2418C188.747 83.0806 185.308 85 181.307 85C178.622 85 176.347 84.0196 174.484 82.0588C172.62 80.0703 171.688 77.5434 171.688 74.4778C171.688 70.3629 173.223 66.8141 176.292 63.8314C179.362 60.8211 182.801 59.316 186.61 59.316C188.583 59.316 190.268 59.7164 191.666 60.5173C193.091 61.2906 194.009 62.3539 194.42 63.7071C195.681 58.4875 197.489 52.4393 199.846 45.5626C202.23 38.6583 204.423 33.2315 206.423 29.2823H213C210.451 34.3638 207.314 42.9804 203.587 55.132C199.86 67.2559 197.996 74.8369 197.996 77.8748C197.996 78.9518 198.216 79.4904 198.654 79.4904C199.75 79.4904 201.504 77.7367 203.916 74.2293L205.683 75.8863C203.957 78.9794 202.107 81.2717 200.134 82.763C198.161 84.2543 196.571 85 195.366 85C194.187 85 193.255 84.5719 192.57 83.7158C191.913 82.832 191.584 81.5617 191.584 79.9046C191.584 79.8494 191.584 79.7527 191.584 79.6146C191.611 79.4489 191.625 79.3247 191.625 79.2418ZM179.129 74.2293C179.129 78.6757 180.828 80.8988 184.226 80.8988C187.405 80.8988 190.022 78.7585 192.077 74.4778C193.036 72.4618 193.516 70.8324 193.516 69.5896C193.516 65.1156 191.83 62.8786 188.46 62.8786C186.213 62.8786 184.089 63.9281 182.088 66.027C180.115 68.0983 179.129 70.8324 179.129 74.2293Z" stroke="#1C1C1C" stroke-width="2" mask="url(#path-1-outside-1_2_66)"/>
<path d="M133.406 39.6328C134.747 35.4661 136.115 31.9766 137.508 29.1641L139.93 29.3594C139.786 29.776 139.435 30.7786 138.875 32.3672C137.664 35.8698 136.883 38.2917 136.531 39.6328H139.598L139.285 40.9219H136.121C134.923 44.6198 134.324 46.8724 134.324 47.6797C134.324 48.474 134.402 48.8711 134.559 48.8711C134.728 48.8711 134.878 48.8385 135.008 48.7734C135.359 48.5781 136.115 47.6276 137.273 45.9219L138.074 46.6445C137.202 48.2331 136.303 49.4115 135.379 50.1797C134.454 50.9349 133.693 51.3125 133.094 51.3125C132.495 51.3125 132.039 51.1042 131.727 50.6875C131.427 50.2708 131.277 49.737 131.277 49.0859C131.277 47.4323 131.857 44.7109 133.016 40.9219H130.965L131.277 39.6328H133.406Z" stroke="#1C1C1C" stroke-width="2" mask="url(#path-1-outside-1_2_66)"/>
<path d="M143.133 47.1523C143.211 48.6497 144.22 49.3984 146.16 49.3984C146.876 49.3984 147.618 49.1966 148.387 48.793C149.168 48.3763 149.799 47.888 150.281 47.3281L151.121 47.875C150.04 49.6849 148.315 50.7917 145.945 51.1953C145.424 51.2734 144.923 51.3125 144.441 51.3125C143.035 51.3125 141.863 50.8503 140.926 49.9258C139.988 48.9883 139.52 47.849 139.52 46.5078C139.52 45.1667 139.93 43.9297 140.75 42.7969C141.57 41.651 142.592 40.7656 143.816 40.1406C145.053 39.5156 146.271 39.2031 147.469 39.2031C148.667 39.2031 149.702 39.4766 150.574 40.0234C151.46 40.5703 151.909 41.306 151.922 42.2305C151.948 43.1549 151.681 43.9557 151.121 44.6328C150.561 45.2969 149.852 45.8047 148.992 46.1562C147.286 46.8464 145.613 47.1914 143.973 47.1914L143.133 47.1523ZM143.016 46.0781C144.461 46.026 145.62 45.7982 146.492 45.3945C147.378 44.9779 147.99 44.5091 148.328 43.9883C148.68 43.4544 148.855 42.901 148.855 42.3281C148.855 41.7422 148.706 41.3125 148.406 41.0391C148.107 40.7526 147.788 40.6094 147.449 40.6094C146.616 40.6094 145.848 40.9023 145.145 41.4883C144.454 42.0612 143.927 42.7643 143.562 43.5977C143.198 44.418 143.016 45.2448 143.016 46.0781Z" stroke="#1C1C1C" stroke-width="2" mask="url(#path-1-outside-1_2_66)"/>
<path d="M164.129 39.6328H167.176L165.633 45.4727C165.385 46.293 165.262 47.0417 165.262 47.7188C165.262 48.3828 165.379 48.7148 165.613 48.7148C165.848 48.7148 166.167 48.513 166.57 48.1094C166.987 47.6927 167.339 47.276 167.625 46.8594L168.074 46.2344L168.914 47.0156C168.484 47.849 167.938 48.6107 167.273 49.3008C165.984 50.6419 164.865 51.3125 163.914 51.3125C162.794 51.3125 162.234 50.4466 162.234 48.7148C162.234 48.4284 162.247 48.2135 162.273 48.0703C162.078 48.7344 161.707 49.3203 161.16 49.8281C160.118 50.8177 158.94 51.3125 157.625 51.3125C156.323 51.3125 155.275 50.8698 154.48 49.9844C153.699 49.0859 153.309 47.9661 153.309 46.625C153.309 44.5417 153.986 42.7839 155.34 41.3516C156.694 39.9193 158.283 39.2031 160.105 39.2031C161.017 39.2031 161.772 39.457 162.371 39.9648C162.97 40.4596 163.361 41.1107 163.543 41.918L164.129 39.6328ZM160.867 40.8828C160.112 40.8828 159.402 41.2018 158.738 41.8398C158.087 42.4648 157.586 43.2266 157.234 44.125C156.883 45.0104 156.707 45.8763 156.707 46.7227C156.707 47.569 156.889 48.2526 157.254 48.7734C157.632 49.2943 158.204 49.5547 158.973 49.5547C159.754 49.5547 160.457 49.2031 161.082 48.5C162.267 47.1458 162.859 45.5378 162.859 43.6758C162.859 41.8138 162.195 40.8828 160.867 40.8828Z" stroke="#1C1C1C" stroke-width="2" mask="url(#path-1-outside-1_2_66)"/>
<path d="M182.41 51H179.52L179.891 49.7109C180.021 49.2031 180.255 48.4609 180.594 47.4844C181.349 45.362 181.727 43.7083 181.727 42.5234C181.727 42.0156 181.512 41.7617 181.082 41.7617C180.548 41.7617 179.917 42.0807 179.188 42.7188C178.471 43.3438 177.781 44.112 177.117 45.0234C176.01 46.5469 174.917 48.2266 173.836 50.0625L173.289 51H170.535C170.535 51 170.737 50.388 171.141 49.1641C172.273 45.7786 172.84 43.7734 172.84 43.1484C172.84 42.5104 172.736 42.1914 172.527 42.1914C172.15 42.1914 171.701 42.6406 171.18 43.5391C171.062 43.7474 170.965 43.9167 170.887 44.0469C170.809 44.1641 170.717 44.3138 170.613 44.4961C170.522 44.6654 170.464 44.7695 170.438 44.8086L169.129 44.0469C170.145 42.3932 171.076 41.1758 171.922 40.3945C172.768 39.6003 173.634 39.2031 174.52 39.2031C174.923 39.2031 175.268 39.3724 175.555 39.7109C175.854 40.0495 176.004 40.4531 176.004 40.9219C176.004 41.3776 175.978 41.7878 175.926 42.1523C175.874 42.5039 175.815 42.8294 175.75 43.1289C175.685 43.4284 175.594 43.7865 175.477 44.2031C175.359 44.6198 175.262 44.9388 175.184 45.1602C175.118 45.3815 175.027 45.681 174.91 46.0586C174.793 46.4362 174.721 46.6576 174.695 46.7227C174.956 46.2669 175.379 45.5833 175.965 44.6719C176.551 43.7604 176.935 43.1875 177.117 42.9531C177.312 42.7057 177.566 42.3932 177.879 42.0156C178.191 41.625 178.465 41.319 178.699 41.0977C178.947 40.8763 179.24 40.6289 179.578 40.3555C179.917 40.082 180.236 39.8737 180.535 39.7305C181.264 39.3789 182 39.2031 182.742 39.2031C183.497 39.2031 184.07 39.418 184.461 39.8477C184.852 40.2643 185.047 40.7591 185.047 41.332C185.047 41.8919 184.956 42.4779 184.773 43.0898C184.604 43.7018 184.363 44.418 184.051 45.2383C183.738 46.0456 183.536 46.5924 183.445 46.8789C184.695 44.8477 185.652 43.4154 186.316 42.582C188.126 40.3294 189.917 39.2031 191.688 39.2031C192.56 39.2031 193.185 39.4115 193.562 39.8281C193.94 40.2448 194.129 40.8112 194.129 41.5273C194.129 42.2435 193.823 43.4349 193.211 45.1016C192.599 46.7552 192.293 47.7708 192.293 48.1484C192.293 48.526 192.41 48.7148 192.645 48.7148C193.165 48.7148 193.992 47.888 195.125 46.2344L195.965 47.0156C195.197 48.3828 194.35 49.444 193.426 50.1992C192.501 50.9414 191.707 51.3125 191.043 51.3125C190.392 51.3125 189.936 51.0977 189.676 50.668C189.415 50.2383 189.285 49.7305 189.285 49.1445C189.285 48.5456 189.546 47.4974 190.066 46C190.587 44.4896 190.848 43.3307 190.848 42.5234C190.848 42.0156 190.62 41.7617 190.164 41.7617C188.862 41.7617 186.98 43.6693 184.52 47.4844C183.517 49.0339 182.814 50.2057 182.41 51Z" stroke="#1C1C1C" stroke-width="2" mask="url(#path-1-outside-1_2_66)"/>
</svg>
